<svg width="469" height="67" viewBox="0 0 469 67" fill="none" xmlns="http://www.w3.org/2000/svg">
<g filter="url(#filter0_d_2_10)">
<mask id="path-1-outside-1_2_10" maskUnits="userSpaceOnUse" x="4.20001" y="0.899994" width="461" height="58" fill="black">
<rect fill="white" x="4.20001" y="0.899994" width="461" height="58"/>
<path d="M28.1 43.5C25.3667 43.5 22.85 43.05 20.55 42.15C18.25 41.25 16.25 40 14.55 38.4C12.85 36.7667 11.5333 34.8667 10.6 32.7C9.66668 30.5 9.20001 28.1 9.20001 25.5C9.20001 22.9 9.66668 20.5167 10.6 18.35C11.5333 16.15 12.85 14.25 14.55 12.65C16.25 11.0167 18.25 9.74999 20.55 8.84999C22.85 7.94999 25.35 7.49999 28.05 7.49999C30.7833 7.49999 33.2833 7.94999 35.55 8.84999C37.85 9.74999 39.85 11.0167 41.55 12.65C43.25 14.25 44.5667 16.15 45.5 18.35C46.4333 20.5167 46.9 22.9 46.9 25.5C46.9 28.1 46.4333 30.5 45.5 32.7C44.5667 34.9 43.25 36.8 41.55 38.4C39.85 40 37.85 41.25 35.55 42.15C33.2833 43.05 30.8 43.5 28.1 43.5ZM28.05 37.8C29.8167 37.8 31.45 37.5 32.95 36.9C34.45 36.3 35.75 35.45 36.85 34.35C37.95 33.2167 38.8 31.9167 39.4 30.45C40.0333 28.95 40.35 27.3 40.35 25.5C40.35 23.7 40.0333 22.0667 39.4 20.6C38.8 19.1 37.95 17.8 36.85 16.7C35.75 15.5667 34.45 14.7 32.95 14.1C31.45 13.5 29.8167 13.2 28.05 13.2C26.2833 13.2 24.65 13.5 23.15 14.1C21.6833 14.7 20.3833 15.5667 19.25 16.7C18.15 17.8 17.2833 19.1 16.65 20.6C16.05 22.0667 15.75 23.7 15.75 25.5C15.75 27.2667 16.05 28.9 16.65 30.4C17.2833 31.9 18.15 33.2167 19.25 34.35C20.35 35.45 21.65 36.3 23.15 36.9C24.65 37.5 26.2833 37.8 28.05 37.8Z"/>
<path d="M52.2899 43V7.99999H66.6899C69.7899 7.99999 72.4399 8.49999 74.6399 9.5C76.8732 10.5 78.5899 11.9333 79.7899 13.8C80.9899 15.6667 81.5899 17.8833 81.5899 20.45C81.5899 23.0167 80.9899 25.2333 79.7899 27.1C78.5899 28.9667 76.8732 30.4 74.6399 31.4C72.4399 32.4 69.7899 32.9 66.6899 32.9H55.8899L58.7899 29.85V43H52.2899ZM58.7899 30.55L55.8899 27.4H66.3899C69.2565 27.4 71.4065 26.8 72.8399 25.6C74.3065 24.3667 75.0399 22.65 75.0399 20.45C75.0399 18.2167 74.3065 16.5 72.8399 15.3C71.4065 14.1 69.2565 13.5 66.3899 13.5H55.8899H58.7899V30.55Z"/>
<path d="M86.5809 43V7.99999H100.981C104.081 7.99999 106.731 8.49999 108.931 9.5C111.164 10.5 112.881 11.9333 114.081 13.8C115.281 15.6667 115.881 17.8833 115.881 20.45C115.881 23.0167 115.281 25.2333 114.081 27.1C112.881 28.9667 111.164 30.4 108.931 31.4C106.731 32.4 104.081 32.9 100.981 32.9L93.0809 32.7V29.85V43H86.5809ZM93.0809 30.55V27.4H100.681C103.548 27.4 105.698 26.8 107.131 25.6C108.598 24.3667 109.331 22.65 109.331 20.45C109.331 18.2167 108.598 16.5 107.131 15.3C105.698 14.1 103.548 13.5 100.681 13.5H90.1809H93.0809V30.55Z"/>
<path d="M137.76 43.5C135.027 43.5 132.51 43.05 130.21 42.15C127.91 41.25 125.91 40 124.21 38.4C122.51 36.7667 121.194 34.8667 120.26 32.7C119.327 30.5 118.86 28.1 118.86 25.5C118.86 22.9 119.327 20.5167 120.26 18.35C121.194 16.15 122.51 14.25 124.21 12.65C125.91 11.0167 127.91 9.74999 130.21 8.84999C132.51 7.94999 135.01 7.49999 137.71 7.49999C140.444 7.49999 142.944 7.94999 145.21 8.84999C147.51 9.74999 149.51 11.0167 151.21 12.65C152.91 14.25 154.227 16.15 155.16 18.35C156.094 20.5167 156.56 22.9 156.56 25.5C156.56 28.1 156.094 30.5 155.16 32.7C154.227 34.9 152.91 36.8 151.21 38.4C149.51 40 147.51 41.25 145.21 42.15C142.944 43.05 140.46 43.5 137.76 43.5ZM137.71 37.8C139.477 37.8 141.11 37.5 142.61 36.9C144.11 36.3 145.41 35.45 146.51 34.35C147.61 33.2167 148.46 31.9167 149.06 30.45C149.694 28.95 150.01 27.3 150.01 25.5C150.01 23.7 149.694 22.0667 149.06 20.6C148.46 19.1 147.61 17.8 146.51 16.7C145.41 15.5667 144.11 14.7 142.61 14.1C141.11 13.5 139.477 13.2 137.71 13.2C135.944 13.2 134.31 13.5 132.81 14.1C131.343 14.7 130.044 15.5667 128.91 16.7C127.81 17.8 126.943 19.1 126.31 20.6C125.71 22.0667 125.41 23.7 125.41 25.5C125.41 27.2667 125.71 28.9 126.31 30.4C126.943 31.9 127.81 33.2167 128.91 34.35C130.01 35.45 131.31 36.3 132.81 36.9C134.31 37.5 135.944 37.8 137.71 37.8Z"/>
<path d="M174.268 43V7.99999H180.768V37.5H199.068V43H174.268Z"/>
<path d="M213.156 43.35C210.889 43.35 208.889 42.9333 207.156 42.1C205.423 41.2333 204.073 39.9333 203.106 38.2C202.139 36.4333 201.656 34.2167 201.656 31.55V16.3H207.906V30.7C207.906 33.1 208.439 34.9 209.506 36.1C210.606 37.2667 212.156 37.85 214.156 37.85C215.623 37.85 216.889 37.55 217.956 36.95C219.056 36.35 219.906 35.45 220.506 34.25C221.139 33.05 221.456 31.5667 221.456 29.8V16.3H227.706V43H221.756V35.8L222.806 38C221.906 39.7333 220.589 41.0667 218.856 42C217.123 42.9 215.223 43.35 213.156 43.35Z"/>
<path d="M246.639 43.35C243.839 43.35 241.339 42.7667 239.139 41.6C236.972 40.4 235.272 38.7667 234.039 36.7C232.806 34.6333 232.189 32.2833 232.189 29.65C232.189 26.9833 232.806 24.6333 234.039 22.6C235.272 20.5333 236.972 18.9167 239.139 17.75C241.339 16.5833 243.839 16 246.639 16C249.239 16 251.522 16.5333 253.489 17.6C255.489 18.6333 257.006 20.1667 258.039 22.2L253.239 25C252.439 23.7333 251.456 22.8 250.289 22.2C249.156 21.6 247.922 21.3 246.589 21.3C245.056 21.3 243.672 21.6333 242.439 22.3C241.206 22.9667 240.239 23.9333 239.539 25.2C238.839 26.4333 238.489 27.9167 238.489 29.65C238.489 31.3833 238.839 32.8833 239.539 34.15C240.239 35.3833 241.206 36.3333 242.439 37C243.672 37.6667 245.056 38 246.589 38C247.922 38 249.156 37.7 250.289 37.1C251.456 36.5 252.439 35.5667 253.239 34.3L258.039 37.1C257.006 39.1 255.489 40.65 253.489 41.75C251.522 42.8167 249.239 43.35 246.639 43.35Z"/>
<path d="M266.798 37.05L266.948 29.2L280.898 16.3H288.398L276.548 28.2L273.248 30.95L266.798 37.05ZM261.698 43V5.89999H267.948V43H261.698ZM281.848 43L272.098 30.95L276.048 25.95L289.448 43H281.848Z"/>
<path d="M292.671 53.05C291.371 53.05 290.071 52.8333 288.771 52.4C287.471 51.9667 286.388 51.3667 285.521 50.6L288.021 46C288.654 46.5667 289.371 47.0167 290.171 47.35C290.971 47.6833 291.788 47.85 292.621 47.85C293.754 47.85 294.671 47.5667 295.371 47C296.071 46.4333 296.721 45.4833 297.321 44.15L298.871 40.65L299.371 39.9L309.471 16.3H315.471L302.971 45.15C302.138 47.15 301.204 48.7333 300.171 49.9C299.171 51.0667 298.038 51.8833 296.771 52.35C295.538 52.8167 294.171 53.05 292.671 53.05ZM298.171 43.95L286.121 16.3H292.621L302.421 39.35L298.171 43.95Z"/>
<path d="M330.796 43V7.99999H346.096C349.896 7.99999 353.229 8.73333 356.096 10.2C358.962 11.6667 361.196 13.7 362.796 16.3C364.396 18.9 365.196 21.9667 365.196 25.5C365.196 29 364.396 32.0667 362.796 34.7C361.196 37.3 358.962 39.3333 356.096 40.8C353.229 42.2667 349.896 43 346.096 43H330.796ZM337.296 37.5H345.796C348.429 37.5 350.696 37 352.596 36C354.529 35 356.012 33.6 357.046 31.8C358.112 30 358.646 27.9 358.646 25.5C358.646 23.0667 358.112 20.9667 357.046 19.2C356.012 17.4 354.529 16 352.596 15C350.696 14 348.429 13.5 345.796 13.5H337.296V37.5Z"/>
<path d="M370.004 43V16.3H375.954V23.65L375.254 21.5C376.054 19.7 377.304 18.3333 379.004 17.4C380.738 16.4667 382.888 16 385.454 16V21.95C385.188 21.8833 384.938 21.85 384.704 21.85C384.471 21.8167 384.238 21.8 384.004 21.8C381.638 21.8 379.754 22.5 378.354 23.9C376.954 25.2667 376.254 27.3167 376.254 30.05V43H370.004Z"/>
<path d="M403.802 43V37.6L403.452 36.45V27C403.452 25.1667 402.902 23.75 401.802 22.75C400.702 21.7167 399.035 21.2 396.802 21.2C395.302 21.2 393.819 21.4333 392.352 21.9C390.919 22.3667 389.702 23.0167 388.702 23.85L386.252 19.3C387.685 18.2 389.385 17.3833 391.352 16.85C393.352 16.2833 395.419 16 397.552 16C401.419 16 404.402 16.9333 406.502 18.8C408.635 20.6333 409.702 23.4833 409.702 27.35V43H403.802ZM395.402 43.35C393.402 43.35 391.652 43.0167 390.152 42.35C388.652 41.65 387.485 40.7 386.652 39.5C385.852 38.2667 385.452 36.8833 385.452 35.35C385.452 33.85 385.802 32.5 386.502 31.3C387.235 30.1 388.419 29.15 390.052 28.45C391.685 27.75 393.852 27.4 396.552 27.4H404.302V31.55H397.002C394.869 31.55 393.435 31.9 392.702 32.6C391.969 33.2667 391.602 34.1 391.602 35.1C391.602 36.2333 392.052 37.1333 392.952 37.8C393.852 38.4667 395.102 38.8 396.702 38.8C398.235 38.8 399.602 38.45 400.802 37.75C402.035 37.05 402.919 36.0167 403.452 34.65L404.502 38.4C403.902 39.9667 402.819 41.1833 401.252 42.05C399.719 42.9167 397.769 43.35 395.402 43.35Z"/>
<path d="M421.635 43L411.835 16.3H417.735L426.135 39.85H423.335L432.135 16.3H437.385L445.935 39.85H443.185L451.835 16.3H457.385L447.535 43H441.535L433.735 22.15H435.585L427.635 43H421.635Z"/>
</mask>
<path d="M28.1 43.5C25.3667 43.5 22.85 43.05 20.55 42.15C18.25 41.25 16.25 40 14.55 38.4C12.85 36.7667 11.5333 34.8667 10.6 32.7C9.66668 30.5 9.20001 28.1 9.20001 25.5C9.20001 22.9 9.66668 20.5167 10.6 18.35C11.5333 16.15 12.85 14.25 14.55 12.65C16.25 11.0167 18.25 9.74999 20.55 8.84999C22.85 7.94999 25.35 7.49999 28.05 7.49999C30.7833 7.49999 33.2833 7.94999 35.55 8.84999C37.85 9.74999 39.85 11.0167 41.55 12.65C43.25 14.25 44.5667 16.15 45.5 18.35C46.4333 20.5167 46.9 22.9 46.9 25.5C46.9 28.1 46.4333 30.5 45.5 32.7C44.5667 34.9 43.25 36.8 41.55 38.4C39.85 40 37.85 41.25 35.55 42.15C33.2833 43.05 30.8 43.5 28.1 43.5ZM28.05 37.8C29.8167 37.8 31.45 37.5 32.95 36.9C34.45 36.3 35.75 35.45 36.85 34.35C37.95 33.2167 38.8 31.9167 39.4 30.45C40.0333 28.95 40.35 27.3 40.35 25.5C40.35 23.7 40.0333 22.0667 39.4 20.6C38.8 19.1 37.95 17.8 36.85 16.7C35.75 15.5667 34.45 14.7 32.95 14.1C31.45 13.5 29.8167 13.2 28.05 13.2C26.2833 13.2 24.65 13.5 23.15 14.1C21.6833 14.7 20.3833 15.5667 19.25 16.7C18.15 17.8 17.2833 19.1 16.65 20.6C16.05 22.0667 15.75 23.7 15.75 25.5C15.75 27.2667 16.05 28.9 16.65 30.4C17.2833 31.9 18.15 33.2167 19.25 34.35C20.35 35.45 21.65 36.3 23.15 36.9C24.65 37.5 26.2833 37.8 28.05 37.8Z" fill="white"/>
<path d="M52.2899 43V7.99999H66.6899C69.7899 7.99999 72.4399 8.49999 74.6399 9.5C76.8732 10.5 78.5899 11.9333 79.7899 13.8C80.9899 15.6667 81.5899 17.8833 81.5899 20.45C81.5899 23.0167 80.9899 25.2333 79.7899 27.1C78.5899 28.9667 76.8732 30.4 74.6399 31.4C72.4399 32.4 69.7899 32.9 66.6899 32.9H55.8899L58.7899 29.85V43H52.2899ZM58.7899 30.55L55.8899 27.4H66.3899C69.2565 27.4 71.4065 26.8 72.8399 25.6C74.3065 24.3667 75.0399 22.65 75.0399 20.45C75.0399 18.2167 74.3065 16.5 72.8399 15.3C71.4065 14.1 69.2565 13.5 66.3899 13.5H55.8899H58.7899V30.55Z" fill="white"/>
<path d="M86.5809 43V7.99999H100.981C104.081 7.99999 106.731 8.49999 108.931 9.5C111.164 10.5 112.881 11.9333 114.081 13.8C115.281 15.6667 115.881 17.8833 115.881 20.45C115.881 23.0167 115.281 25.2333 114.081 27.1C112.881 28.9667 111.164 30.4 108.931 31.4C106.731 32.4 104.081 32.9 100.981 32.9L93.0809 32.7V29.85V43H86.5809ZM93.0809 30.55V27.4H100.681C103.548 27.4 105.698 26.8 107.131 25.6C108.598 24.3667 109.331 22.65 109.331 20.45C109.331 18.2167 108.598 16.5 107.131 15.3C105.698 14.1 103.548 13.5 100.681 13.5H90.1809H93.0809V30.55Z" fill="white"/>
<path d="M137.76 43.5C135.027 43.5 132.51 43.05 130.21 42.15C127.91 41.25 125.91 40 124.21 38.4C122.51 36.7667 121.194 34.8667 120.26 32.7C119.327 30.5 118.86 28.1 118.86 25.5C118.86 22.9 119.327 20.5167 120.26 18.35C121.194 16.15 122.51 14.25 124.21 12.65C125.91 11.0167 127.91 9.74999 130.21 8.84999C132.51 7.94999 135.01 7.49999 137.71 7.49999C140.444 7.49999 142.944 7.94999 145.21 8.84999C147.51 9.74999 149.51 11.0167 151.21 12.65C152.91 14.25 154.227 16.15 155.16 18.35C156.094 20.5167 156.56 22.9 156.56 25.5C156.56 28.1 156.094 30.5 155.16 32.7C154.227 34.9 152.91 36.8 151.21 38.4C149.51 40 147.51 41.25 145.21 42.15C142.944 43.05 140.46 43.5 137.76 43.5ZM137.71 37.8C139.477 37.8 141.11 37.5 142.61 36.9C144.11 36.3 145.41 35.45 146.51 34.35C147.61 33.2167 148.46 31.9167 149.06 30.45C149.694 28.95 150.01 27.3 150.01 25.5C150.01 23.7 149.694 22.0667 149.06 20.6C148.46 19.1 147.61 17.8 146.51 16.7C145.41 15.5667 144.11 14.7 142.61 14.1C141.11 13.5 139.477 13.2 137.71 13.2C135.944 13.2 134.31 13.5 132.81 14.1C131.343 14.7 130.044 15.5667 128.91 16.7C127.81 17.8 126.943 19.1 126.31 20.6C125.71 22.0667 125.41 23.7 125.41 25.5C125.41 27.2667 125.71 28.9 126.31 30.4C126.943 31.9 127.81 33.2167 128.91 34.35C130.01 35.45 131.31 36.3 132.81 36.9C134.31 37.5 135.944 37.8 137.71 37.8Z" fill="white"/>
<path d="M174.268 43V7.99999H180.768V37.5H199.068V43H174.268Z" fill="white"/>
<path d="M213.156 43.35C210.889 43.35 208.889 42.9333 207.156 42.1C205.423 41.2333 204.073 39.9333 203.106 38.2C202.139 36.4333 201.656 34.2167 201.656 31.55V16.3H207.906V30.7C207.906 33.1 208.439 34.9 209.506 36.1C210.606 37.2667 212.156 37.85 214.156 37.85C215.623 37.85 216.889 37.55 217.956 36.95C219.056 36.35 219.906 35.45 220.506 34.25C221.139 33.05 221.456 31.5667 221.456 29.8V16.3H227.706V43H221.756V35.8L222.806 38C221.906 39.7333 220.589 41.0667 218.856 42C217.123 42.9 215.223 43.35 213.156 43.35Z" fill="white"/>
<path d="M246.639 43.35C243.839 43.35 241.339 42.7667 239.139 41.6C236.972 40.4 235.272 38.7667 234.039 36.7C232.806 34.6333 232.189 32.2833 232.189 29.65C232.189 26.9833 232.806 24.6333 234.039 22.6C235.272 20.5333 236.972 18.9167 239.139 17.75C241.339 16.5833 243.839 16 246.639 16C249.239 16 251.522 16.5333 253.489 17.6C255.489 18.6333 257.006 20.1667 258.039 22.2L253.239 25C252.439 23.7333 251.456 22.8 250.289 22.2C249.156 21.6 247.922 21.3 246.589 21.3C245.056 21.3 243.672 21.6333 242.439 22.3C241.206 22.9667 240.239 23.9333 239.539 25.2C238.839 26.4333 238.489 27.9167 238.489 29.65C238.489 31.3833 238.839 32.8833 239.539 34.15C240.239 35.3833 241.206 36.3333 242.439 37C243.672 37.6667 245.056 38 246.589 38C247.922 38 249.156 37.7 250.289 37.1C251.456 36.5 252.439 35.5667 253.239 34.3L258.039 37.1C257.006 39.1 255.489 40.65 253.489 41.75C251.522 42.8167 249.239 43.35 246.639 43.35Z" fill="white"/>
<path d="M266.798 37.05L266.948 29.2L280.898 16.3H288.398L276.548 28.2L273.248 30.95L266.798 37.05ZM261.698 43V5.89999H267.948V43H261.698ZM281.848 43L272.098 30.95L276.048 25.95L289.448 43H281.848Z" fill="white"/>
<path d="M292.671 53.05C291.371 53.05 290.071 52.8333 288.771 52.4C287.471 51.9667 286.388 51.3667 285.521 50.6L288.021 46C288.654 46.5667 289.371 47.0167 290.171 47.35C290.971 47.6833 291.788 47.85 292.621 47.85C293.754 47.85 294.671 47.5667 295.371 47C296.071 46.4333 296.721 45.4833 297.321 44.15L298.871 40.65L299.371 39.9L309.471 16.3H315.471L302.971 45.15C302.138 47.15 301.204 48.7333 300.171 49.9C299.171 51.0667 298.038 51.8833 296.771 52.35C295.538 52.8167 294.171 53.05 292.671 53.05ZM298.171 43.95L286.121 16.3H292.621L302.421 39.35L298.171 43.95Z" fill="white"/>
<path d="M330.796 43V7.99999H346.096C349.896 7.99999 353.229 8.73333 356.096 10.2C358.962 11.6667 361.196 13.7 362.796 16.3C364.396 18.9 365.196 21.9667 365.196 25.5C365.196 29 364.396 32.0667 362.796 34.7C361.196 37.3 358.962 39.3333 356.096 40.8C353.229 42.2667 349.896 43 346.096 43H330.796ZM337.296 37.5H345.796C348.429 37.5 350.696 37 352.596 36C354.529 35 356.012 33.6 357.046 31.8C358.112 30 358.646 27.9 358.646 25.5C358.646 23.0667 358.112 20.9667 357.046 19.2C356.012 17.4 354.529 16 352.596 15C350.696 14 348.429 13.5 345.796 13.5H337.296V37.5Z" fill="white"/>
<path d="M370.004 43V16.3H375.954V23.65L375.254 21.5C376.054 19.7 377.304 18.3333 379.004 17.4C380.738 16.4667 382.888 16 385.454 16V21.95C385.188 21.8833 384.938 21.85 384.704 21.85C384.471 21.8167 384.238 21.8 384.004 21.8C381.638 21.8 379.754 22.5 378.354 23.9C376.954 25.2667 376.254 27.3167 376.254 30.05V43H370.004Z" fill="white"/>
<path d="M403.802 43V37.6L403.452 36.45V27C403.452 25.1667 402.902 23.75 401.802 22.75C400.702 21.7167 399.035 21.2 396.802 21.2C395.302 21.2 393.819 21.4333 392.352 21.9C390.919 22.3667 389.702 23.0167 388.702 23.85L386.252 19.3C387.685 18.2 389.385 17.3833 391.352 16.85C393.352 16.2833 395.419 16 397.552 16C401.419 16 404.402 16.9333 406.502 18.8C408.635 20.6333 409.702 23.4833 409.702 27.35V43H403.802ZM395.402 43.35C393.402 43.35 391.652 43.0167 390.152 42.35C388.652 41.65 387.485 40.7 386.652 39.5C385.852 38.2667 385.452 36.8833 385.452 35.35C385.452 33.85 385.802 32.5 386.502 31.3C387.235 30.1 388.419 29.15 390.052 28.45C391.685 27.75 393.852 27.4 396.552 27.4H404.302V31.55H397.002C394.869 31.55 393.435 31.9 392.702 32.6C391.969 33.2667 391.602 34.1 391.602 35.1C391.602 36.2333 392.052 37.1333 392.952 37.8C393.852 38.4667 395.102 38.8 396.702 38.8C398.235 38.8 399.602 38.45 400.802 37.75C402.035 37.05 402.919 36.0167 403.452 34.65L404.502 38.4C403.902 39.9667 402.819 41.1833 401.252 42.05C399.719 42.9167 397.769 43.35 395.402 43.35Z" fill="white"/>
<path d="M421.635 43L411.835 16.3H417.735L426.135 39.85H423.335L432.135 16.3H437.385L445.935 39.85H443.185L451.835 16.3H457.385L447.535 43H441.535L433.735 22.15H435.585L427.635 43H421.635Z" fill="white"/>
<path d="M28.1 43.5C25.3667 43.5 22.85 43.05 20.55 42.15C18.25 41.25 16.25 40 14.55 38.4C12.85 36.7667 11.5333 34.8667 10.6 32.7C9.66668 30.5 9.20001 28.1 9.20001 25.5C9.20001 22.9 9.66668 20.5167 10.6 18.35C11.5333 16.15 12.85 14.25 14.55 12.65C16.25 11.0167 18.25 9.74999 20.55 8.84999C22.85 7.94999 25.35 7.49999 28.05 7.49999C30.7833 7.49999 33.2833 7.94999 35.55 8.84999C37.85 9.74999 39.85 11.0167 41.55 12.65C43.25 14.25 44.5667 16.15 45.5 18.35C46.4333 20.5167 46.9 22.9 46.9 25.5C46.9 28.1 46.4333 30.5 45.5 32.7C44.5667 34.9 43.25 36.8 41.55 38.4C39.85 40 37.85 41.25 35.55 42.15C33.2833 43.05 30.8 43.5 28.1 43.5ZM28.05 37.8C29.8167 37.8 31.45 37.5 32.95 36.9C34.45 36.3 35.75 35.45 36.85 34.35C37.95 33.2167 38.8 31.9167 39.4 30.45C40.0333 28.95 40.35 27.3 40.35 25.5C40.35 23.7 40.0333 22.0667 39.4 20.6C38.8 19.1 37.95 17.8 36.85 16.7C35.75 15.5667 34.45 14.7 32.95 14.1C31.45 13.5 29.8167 13.2 28.05 13.2C26.2833 13.2 24.65 13.5 23.15 14.1C21.6833 14.7 20.3833 15.5667 19.25 16.7C18.15 17.8 17.2833 19.1 16.65 20.6C16.05 22.0667 15.75 23.7 15.75 25.5C15.75 27.2667 16.05 28.9 16.65 30.4C17.2833 31.9 18.15 33.2167 19.25 34.35C20.35 35.45 21.65 36.3 23.15 36.9C24.65 37.5 26.2833 37.8 28.05 37.8Z" stroke="#FFBF1E" stroke-width="10" mask="url(#path-1-outside-1_2_10)"/>
<path d="M52.2899 43V7.99999H66.6899C69.7899 7.99999 72.4399 8.49999 74.6399 9.5C76.8732 10.5 78.5899 11.9333 79.7899 13.8C80.9899 15.6667 81.5899 17.8833 81.5899 20.45C81.5899 23.0167 80.9899 25.2333 79.7899 27.1C78.5899 28.9667 76.8732 30.4 74.6399 31.4C72.4399 32.4 69.7899 32.9 66.6899 32.9H55.8899L58.7899 29.85V43H52.2899ZM58.7899 30.55L55.8899 27.4H66.3899C69.2565 27.4 71.4065 26.8 72.8399 25.6C74.3065 24.3667 75.0399 22.65 75.0399 20.45C75.0399 18.2167 74.3065 16.5 72.8399 15.3C71.4065 14.1 69.2565 13.5 66.3899 13.5H55.8899H58.7899V30.55Z" stroke="#FFBF1E" stroke-width="10" mask="url(#path-1-outside-1_2_10)"/>
<path d="M86.5809 43V7.99999H100.981C104.081 7.99999 106.731 8.49999 108.931 9.5C111.164 10.5 112.881 11.9333 114.081 13.8C115.281 15.6667 115.881 17.8833 115.881 20.45C115.881 23.0167 115.281 25.2333 114.081 27.1C112.881 28.9667 111.164 30.4 108.931 31.4C106.731 32.4 104.081 32.9 100.981 32.9L93.0809 32.7V29.85V43H86.5809ZM93.0809 30.55V27.4H100.681C103.548 27.4 105.698 26.8 107.131 25.6C108.598 24.3667 109.331 22.65 109.331 20.45C109.331 18.2167 108.598 16.5 107.131 15.3C105.698 14.1 103.548 13.5 100.681 13.5H90.1809H93.0809V30.55Z" stroke="#FFBF1E" stroke-width="10" mask="url(#path-1-outside-1_2_10)"/>
<path d="M137.76 43.5C135.027 43.5 132.51 43.05 130.21 42.15C127.91 41.25 125.91 40 124.21 38.4C122.51 36.7667 121.194 34.8667 120.26 32.7C119.327 30.5 118.86 28.1 118.86 25.5C118.86 22.9 119.327 20.5167 120.26 18.35C121.194 16.15 122.51 14.25 124.21 12.65C125.91 11.0167 127.91 9.74999 130.21 8.84999C132.51 7.94999 135.01 7.49999 137.71 7.49999C140.444 7.49999 142.944 7.94999 145.21 8.84999C147.51 9.74999 149.51 11.0167 151.21 12.65C152.91 14.25 154.227 16.15 155.16 18.35C156.094 20.5167 156.56 22.9 156.56 25.5C156.56 28.1 156.094 30.5 155.16 32.7C154.227 34.9 152.91 36.8 151.21 38.4C149.51 40 147.51 41.25 145.21 42.15C142.944 43.05 140.46 43.5 137.76 43.5ZM137.71 37.8C139.477 37.8 141.11 37.5 142.61 36.9C144.11 36.3 145.41 35.45 146.51 34.35C147.61 33.2167 148.46 31.9167 149.06 30.45C149.694 28.95 150.01 27.3 150.01 25.5C150.01 23.7 149.694 22.0667 149.06 20.6C148.46 19.1 147.61 17.8 146.51 16.7C145.41 15.5667 144.11 14.7 142.61 14.1C141.11 13.5 139.477 13.2 137.71 13.2C135.944 13.2 134.31 13.5 132.81 14.1C131.343 14.7 130.044 15.5667 128.91 16.7C127.81 17.8 126.943 19.1 126.31 20.6C125.71 22.0667 125.41 23.7 125.41 25.5C125.41 27.2667 125.71 28.9 126.31 30.4C126.943 31.9 127.81 33.2167 128.91 34.35C130.01 35.45 131.31 36.3 132.81 36.9C134.31 37.5 135.944 37.8 137.71 37.8Z" stroke="#FFBF1E" stroke-width="10" mask="url(#path-1-outside-1_2_10)"/>
<path d="M174.268 43V7.99999H180.768V37.5H199.068V43H174.268Z" stroke="#FFBF1E" stroke-width="10" mask="url(#path-1-outside-1_2_10)"/>
<path d="M213.156 43.35C210.889 43.35 208.889 42.9333 207.156 42.1C205.423 41.2333 204.073 39.9333 203.106 38.2C202.139 36.4333 201.656 34.2167 201.656 31.55V16.3H207.906V30.7C207.906 33.1 208.439 34.9 209.506 36.1C210.606 37.2667 212.156 37.85 214.156 37.85C215.623 37.85 216.889 37.55 217.956 36.95C219.056 36.35 219.906 35.45 220.506 34.25C221.139 33.05 221.456 31.5667 221.456 29.8V16.3H227.706V43H221.756V35.8L222.806 38C221.906 39.7333 220.589 41.0667 218.856 42C217.123 42.9 215.223 43.35 213.156 43.35Z" stroke="#FFBF1E" stroke-width="10" mask="url(#path-1-outside-1_2_10)"/>
<path d="M246.639 43.35C243.839 43.35 241.339 42.7667 239.139 41.6C236.972 40.4 235.272 38.7667 234.039 36.7C232.806 34.6333 232.189 32.2833 232.189 29.65C232.189 26.9833 232.806 24.6333 234.039 22.6C235.272 20.5333 236.972 18.9167 239.139 17.75C241.339 16.5833 243.839 16 246.639 16C249.239 16 251.522 16.5333 253.489 17.6C255.489 18.6333 257.006 20.1667 258.039 22.2L253.239 25C252.439 23.7333 251.456 22.8 250.289 22.2C249.156 21.6 247.922 21.3 246.589 21.3C245.056 21.3 243.672 21.6333 242.439 22.3C241.206 22.9667 240.239 23.9333 239.539 25.2C238.839 26.4333 238.489 27.9167 238.489 29.65C238.489 31.3833 238.839 32.8833 239.539 34.15C240.239 35.3833 241.206 36.3333 242.439 37C243.672 37.6667 245.056 38 246.589 38C247.922 38 249.156 37.7 250.289 37.1C251.456 36.5 252.439 35.5667 253.239 34.3L258.039 37.1C257.006 39.1 255.489 40.65 253.489 41.75C251.522 42.8167 249.239 43.35 246.639 43.35Z" stroke="#FFBF1E" stroke-width="10" mask="url(#path-1-outside-1_2_10)"/>
<path d="M266.798 37.05L266.948 29.2L280.898 16.3H288.398L276.548 28.2L273.248 30.95L266.798 37.05ZM261.698 43V5.89999H267.948V43H261.698ZM281.848 43L272.098 30.95L276.048 25.95L289.448 43H281.848Z" stroke="#FFBF1E" stroke-width="10" mask="url(#path-1-outside-1_2_10)"/>
<path d="M292.671 53.05C291.371 53.05 290.071 52.8333 288.771 52.4C287.471 51.9667 286.388 51.3667 285.521 50.6L288.021 46C288.654 46.5667 289.371 47.0167 290.171 47.35C290.971 47.6833 291.788 47.85 292.621 47.85C293.754 47.85 294.671 47.5667 295.371 47C296.071 46.4333 296.721 45.4833 297.321 44.15L298.871 40.65L299.371 39.9L309.471 16.3H315.471L302.971 45.15C302.138 47.15 301.204 48.7333 300.171 49.9C299.171 51.0667 298.038 51.8833 296.771 52.35C295.538 52.8167 294.171 53.05 292.671 53.05ZM298.171 43.95L286.121 16.3H292.621L302.421 39.35L298.171 43.95Z" stroke="#FFBF1E" stroke-width="10" mask="url(#path-1-outside-1_2_10)"/>
<path d="M330.796 43V7.99999H346.096C349.896 7.99999 353.229 8.73333 356.096 10.2C358.962 11.6667 361.196 13.7 362.796 16.3C364.396 18.9 365.196 21.9667 365.196 25.5C365.196 29 364.396 32.0667 362.796 34.7C361.196 37.3 358.962 39.3333 356.096 40.8C353.229 42.2667 349.896 43 346.096 43H330.796ZM337.296 37.5H345.796C348.429 37.5 350.696 37 352.596 36C354.529 35 356.012 33.6 357.046 31.8C358.112 30 358.646 27.9 358.646 25.5C358.646 23.0667 358.112 20.9667 357.046 19.2C356.012 17.4 354.529 16 352.596 15C350.696 14 348.429 13.5 345.796 13.5H337.296V37.5Z" stroke="#FFBF1E" stroke-width="10" mask="url(#path-1-outside-1_2_10)"/>
<path d="M370.004 43V16.3H375.954V23.65L375.254 21.5C376.054 19.7 377.304 18.3333 379.004 17.4C380.738 16.4667 382.888 16 385.454 16V21.95C385.188 21.8833 384.938 21.85 384.704 21.85C384.471 21.8167 384.238 21.8 384.004 21.8C381.638 21.8 379.754 22.5 378.354 23.9C376.954 25.2667 376.254 27.3167 376.254 30.05V43H370.004Z" stroke="#FFBF1E" stroke-width="10" mask="url(#path-1-outside-1_2_10)"/>
<path d="M403.802 43V37.6L403.452 36.45V27C403.452 25.1667 402.902 23.75 401.802 22.75C400.702 21.7167 399.035 21.2 396.802 21.2C395.302 21.2 393.819 21.4333 392.352 21.9C390.919 22.3667 389.702 23.0167 388.702 23.85L386.252 19.3C387.685 18.2 389.385 17.3833 391.352 16.85C393.352 16.2833 395.419 16 397.552 16C401.419 16 404.402 16.9333 406.502 18.8C408.635 20.6333 409.702 23.4833 409.702 27.35V43H403.802ZM395.402 43.35C393.402 43.35 391.652 43.0167 390.152 42.35C388.652 41.65 387.485 40.7 386.652 39.5C385.852 38.2667 385.452 36.8833 385.452 35.35C385.452 33.85 385.802 32.5 386.502 31.3C387.235 30.1 388.419 29.15 390.052 28.45C391.685 27.75 393.852 27.4 396.552 27.4H404.302V31.55H397.002C394.869 31.55 393.435 31.9 392.702 32.6C391.969 33.2667 391.602 34.1 391.602 35.1C391.602 36.2333 392.052 37.1333 392.952 37.8C393.852 38.4667 395.102 38.8 396.702 38.8C398.235 38.8 399.602 38.45 400.802 37.75C402.035 37.05 402.919 36.0167 403.452 34.65L404.502 38.4C403.902 39.9667 402.819 41.1833 401.252 42.05C399.719 42.9167 397.769 43.35 395.402 43.35Z" stroke="#FFBF1E" stroke-width="10" mask="url(#path-1-outside-1_2_10)"/>
<path d="M421.635 43L411.835 16.3H417.735L426.135 39.85H423.335L432.135 16.3H437.385L445.935 39.85H443.185L451.835 16.3H457.385L447.535 43H441.535L433.735 22.15H435.585L427.635 43H421.635Z" stroke="#FFBF1E" stroke-width="10" mask="url(#path-1-outside-1_2_10)"/>
</g>
<defs>
<filter id="filter0_d_2_10" x="0.200012" y="0.899994" width="468.359" height="65.15" filterUnits="userSpaceOnUse" color-interpolation-filters="sRGB">
<feFlood flood-opacity="0" result="BackgroundImageFix"/>
<feColorMatrix in="SourceAlpha" type="matrix" values="0 0 0 0 0 0 0 0 0 0 0 0 0 0 0 0 0 0 127 0" result="hardAlpha"/>
<feOffset dy="4"/>
<feGaussianBlur stdDeviation="2"/>
<feComposite in2="hardAlpha" operator="out"/>
<feColorMatrix type="matrix" values="0 0 0 0 0 0 0 0 0 0 0 0 0 0 0 0 0 0 0.25 0"/>
<feBlend mode="normal" in2="BackgroundImageFix" result="effect1_dropShadow_2_10"/>
<feBlend mode="normal" in="SourceGraphic" in2="effect1_dropShadow_2_10" result="shape"/>
</filter>
</defs>
</svg>
