<?xml version="1.0" encoding="UTF-8"?>
<svg id="Layer_2" data-name="Layer 2" xmlns="http://www.w3.org/2000/svg" viewBox="0 0 651.11 154.67">
  <g id="Layer_1-2">
    <g>
      <path d="M650.69,51.83c-.9-7.85-3.74-15.07-8.24-21.6-6.54-9.51-15.33-16.33-25.69-21.23-10.85-5.13-22.36-7.69-34.28-8.63-11.9-.94-23.64,0-35.21,2.92-11.32,2.86-21.83,7.46-30.88,14.98-11.4,9.47-18.28,21.42-19.51,36.33-1,12.14,1.88,23.33,8.83,33.37,7.27,10.49,17.24,17.61,28.95,22.36,12.89,5.24,26.31,7.74,40.44,7.22,7.7,.08,15.5-.66,23.2-2.48,11.18-2.65,21.73-6.75,30.91-13.78,16.29-12.49,23.83-28.89,21.47-49.46Zm-22.83,7.82c-.21,12.32-5.86,21.57-15.66,28.53-6.89,4.9-14.74,7.48-22.98,9.03-5.36,1-10.77,1.42-15.35,1.25-10.87,.02-20.55-1.63-29.76-5.57-7.6-3.25-14.05-7.97-18.67-14.98-4.24-6.44-5.78-13.53-5.38-21.15,.63-12.05,6.49-21.04,16.3-27.66,6.64-4.48,14.07-7.05,21.91-8.44,12.67-2.25,25.25-1.95,37.69,1.48,7.84,2.16,15.02,5.66,20.98,11.3,7.5,7.11,11.09,15.82,10.91,26.2Z"/>
      <path d="M480,34.89c-5.4-10.1-13.46-17.56-23.33-23.16-11.94-6.77-24.92-10.13-38.52-11.31-9.87-.85-19.68-.35-29.43,1.4-11.6,2.08-22.44,6.1-32.35,12.51-.47,.31-.92,.68-1.57,.85-.03-.67-.09-1.28-.09-1.89-.02-2.29-.07-4.58-.02-6.87,.02-.82-.24-1-1.03-1-7.08,.03-14.17,.04-21.25,0-.91,0-1.02,.3-1.02,1.1,.02,49.02,.02,98.05,0,147.08,0,.96,.3,1.08,1.14,1.08,7.01-.03,14.03-.03,21.05,0,.89,0,1.12-.19,1.12-1.11-.03-16.61-.02-33.23-.02-49.85v-1.36c.55,.36,.95,.61,1.34,.86,2.53,1.69,5.13,3.27,7.87,4.6,12.68,6.19,26.1,9.35,40.21,9.74,10.65,.29,21.18-.39,31.53-3.11,11.41-2.99,21.99-7.65,31.06-15.32,12.08-10.23,18.78-23.14,19.2-39.11,.23-8.88-1.67-17.29-5.86-25.14Zm-17.49,27.25c-1.33,14.25-9.42,23.64-21.84,29.72-8.29,4.06-17.16,6.06-26.39,6.39-2.02,.07-4.03,.01-6.05,.01-10.63,.28-20.89-1.5-30.59-5.95-6.2-2.85-11.72-6.65-15.88-12.15-4.93-6.53-7.15-13.88-7-22.09,.15-8.44,2.95-15.76,8.4-22.1,4.46-5.18,10.09-8.78,16.36-11.35,10.72-4.4,21.97-5.77,33.46-5.27,9.26,.4,18.24,2.2,26.7,6.1,7.75,3.58,14.24,8.64,18.54,16.17,3.64,6.37,4.96,13.26,4.29,20.52Z"/>
      <path d="M314.47,35.33c-5.24-10.06-13.15-17.54-22.85-23.21-12.17-7.13-25.5-10.49-39.44-11.7-9.83-.86-19.61-.37-29.32,1.43-11.08,2.06-21.55,5.75-31.13,11.77-.86,.54-1.74,1.06-2.85,1.74,0-3.15-.02-6.05,.02-8.94,.01-.73-.13-1-.94-.99-7.15,.03-14.3,.03-21.45,0-.79,0-.96,.23-.96,.98,.02,49.09,.02,98.18,0,147.26,0,.84,.25,1,1.03,1,7.01-.03,14.03-.04,21.04,0,.99,0,1.3-.17,1.3-1.25-.04-16.61-.03-33.23-.02-49.84,0-.36-.1-.74,.12-1.14,1.49,.93,2.94,1.89,4.43,2.76,12.14,7.16,25.35,10.88,39.32,12.08,10.65,.92,21.26,.48,31.77-1.61,11.62-2.31,22.51-6.45,32.21-13.34,13.49-9.58,21.79-22.33,23.25-39.06,.86-9.82-.94-19.18-5.51-27.95Zm-34.4,53.67c-6.67,4.37-14.13,6.72-21.9,8.24-5.1,1-10.26,1.09-15.42,1.18-10.04,.22-19.75-1.42-29.03-5.29-7.45-3.11-13.92-7.56-18.63-14.26-4.77-6.78-6.66-14.38-6.04-22.58,1.05-13.85,8.58-23.3,20.52-29.65,6.99-3.72,14.53-5.7,22.34-6.7,10.87-1.39,21.64-.81,32.25,2.01,7.34,1.95,14.18,5.01,20.05,9.88,6.57,5.45,10.98,12.39,12.2,20.85,2.22,15.42-3.18,27.69-16.34,36.31Z"/>
      <path d="M148.18,34.29c-5.45-9.94-13.5-17.27-23.3-22.77C113.68,5.24,101.54,1.99,88.85,.64,76.5-.68,64.25,.05,52.16,2.88c-12.27,2.87-23.61,7.78-33.26,16.05C4.23,31.51-1.92,47.49,.52,66.64c1.13,8.82,4.71,16.7,10.16,23.72,7.17,9.23,16.51,15.57,27.2,19.98,12.91,5.32,26.4,7.6,43.12,7.26,6.28,.17,15.16-1.05,23.9-3.37,9.96-2.64,19.32-6.61,27.55-12.91,12.84-9.83,20.76-22.49,21.87-38.91,.67-9.95-1.33-19.36-6.14-28.12Zm-32.57,53.85c-6.65,4.79-14.3,7.29-22.28,8.88-5.08,1.01-10.22,1.43-15.4,1.41-10.03,.35-19.75-1.32-29.09-4.95-8.32-3.23-15.31-8.27-20.26-15.83-4.3-6.57-5.85-13.85-5.25-21.59,1.07-13.94,8.9-23.24,20.78-29.61,7.05-3.77,14.7-5.61,22.59-6.58,6.48-.8,12.97-.87,19.45-.2,11.21,1.17,21.8,4.15,30.93,11.09,6.85,5.2,11.77,11.85,13.29,20.39,2.64,14.77-1.24,27.23-14.75,36.97Z"/>
    </g>
  </g>
</svg>
